<svg xmlns="http://www.w3.org/2000/svg" width="16" height="14" viewBox="0 0 16 14">
  <defs>
    <style>
      .cls-1 {
        fill: #979898;
        fill-rule: evenodd;
      }
    </style>
  </defs>
  <path class="cls-1" d="M505,5482.59v2.5a1,1,0,0,1-1,1H494a1,1,0,0,1-1-1v-5a1.007,1.007,0,0,1,.539-0.88,8.1,8.1,0,0,1,1.221-2.12H494a3,3,0,0,0-3,3v5a3,3,0,0,0,3,2.99h10a3,3,0,0,0,3-2.99v-4Zm1.6-3.7-4,3a0.984,0.984,0,0,1-1.047.09,0.993,0.993,0,0,1-.553-0.89v-1a6,6,0,0,0-5.651,4,5.986,5.986,0,0,1,5.651-8v-1a0.993,0.993,0,0,1,.553-0.89,0.984,0.984,0,0,1,1.047.09l4,3a0.994,0.994,0,0,1,.4.8A1.008,1.008,0,0,1,506.6,5478.89Z" transform="translate(-491 -5474.09)"/>
</svg>
