<svg fill="#ffffff" xmlns="http://www.w3.org/2000/svg" width="64" height="14.5" viewBox="0 0 304 346.469">
  <path d="M58.269,347a58.176,58.176,0,1,1,0-116.352,12.485,12.485,0,1,1,0,24.969,33.207,33.207,0,1,0,33.257,33.207L91.481,54.436a12.489,12.489,0,0,1,9.8-12.192L288.789,0.816A12.5,12.5,0,0,1,304,13.02l-0.254,227.053a58.268,58.268,0,1,1-58.267-58.19,12.485,12.485,0,1,1,0,24.969,33.207,33.207,0,1,0,33.258,33.207l0.236-211.5-162.478,35.9,0.043,224.366A58.286,58.286,0,0,1,58.269,347Z" transform="translate(0 -0.531)"/>
<g viewBox="0 0 139.719 34.875" transform="translate(610, 175) scale(2.3) rotate(3)">
    <path d="M767.065,138.1L676,115.97l22.16,21.642-70.825-10.944,95.544,24.18-17.1-18.756Z" transform="translate(-627.344 -115.969)"/>
  </g>
<g viewBox="0 0 139.719 34.875" transform="translate(-260, 175) scale(-2.3, 2.3) rotate(3)">
    <path d="M767.065,138.1L676,115.97l22.16,21.642-70.825-10.944,95.544,24.18-17.1-18.756Z" transform="translate(-627.344 -115.969)"/>
  </g>
</svg>
