<svg xmlns="http://www.w3.org/2000/svg"><defs><style>.cls-1{fill:#979898;fill-rule:evenodd}</style><style>.cls-1{fill:#979898;fill-opacity:.8;fill-rule:evenodd}</style><style>.cls-1{fill:#979898;fill-opacity:.8;fill-rule:evenodd}</style><style>.cls-1{fill:#979898;fill-opacity:.8;fill-rule:evenodd}</style></defs><symbol id="downloads" viewBox="0 0 16 14"><path id="Options" class="cls-1" d="M505 5482.59v2.5a1 1 0 0 1-1 1h-10a1 1 0 0 1-1-1v-5a1.007 1.007 0 0 1 .539-.88 8.1 8.1 0 0 1 1.221-2.12H494a3 3 0 0 0-3 3v5a3 3 0 0 0 3 2.99h10a3 3 0 0 0 3-2.99v-4zm1.6-3.7l-4 3a.984.984 0 0 1-1.047.09.993.993 0 0 1-.553-.89v-1a6 6 0 0 0-5.651 4 5.986 5.986 0 0 1 5.651-8v-1a.993.993 0 0 1 .553-.89.984.984 0 0 1 1.047.09l4 3a.994.994 0 0 1 .4.8 1.008 1.008 0 0 1-.4.8z" transform="translate(-491 -5474.09)"/></symbol><symbol id="hear-count" viewBox="0 0 13 16"><path id="Audio_-_mid" data-name="Audio - mid" class="cls-1" d="M346 5485.19a3 3 0 0 1-3-3v-2a3 3 0 0 1 3-3h1l5-3.99v15.99l-5-4h-1zm10-4a4 4 0 0 1-3 3.86v-2.14a1.979 1.979 0 0 0 0-3.44v-2.14a4 4 0 0 1 3 3.86z" transform="translate(-343 -5473.19)"/></symbol><symbol id="likes-count" viewBox="0 0 15.969 13.88"><path id="Heart_-_full" data-name="Heart - full" class="cls-1" d="M439.821 5481.12l-6.821 7.07-6.821-7.07a4 4 0 0 1 5.657-5.65l1.164 1.41 1.164-1.41a4 4 0 1 1 5.657 5.65z" transform="translate(-425.031 -5474.31)"/></symbol><symbol id="quotes" viewBox="0 0 15 15"><path id="Speech_bubble_-_left_tip_-_text" data-name="Speech bubble - left tip - text" class="cls-1" d="M566.191 5486.18h-5.625l-1.875 2.81-1.875-2.81a2.815 2.815 0 0 1-2.813-2.82v-6.56a2.813 2.813 0 0 1 2.813-2.81h9.375a2.812 2.812 0 0 1 2.809 2.81v6.56a2.814 2.814 0 0 1-2.809 2.82z" transform="translate(-554 -5474)"/></symbol></svg>