<svg xmlns="http://www.w3.org/2000/svg"><symbol id="downloads" viewBox="0 0 16 14"><path class="cls-1" d="M14 8.5V11a1 1 0 0 1-1 1H3a1 1 0 0 1-1-1V6a1.007 1.007 0 0 1 .539-.88A8.1 8.1 0 0 1 3.76 3H3a3 3 0 0 0-3 3v5a3 3 0 0 0 3 2.99h10A3 3 0 0 0 16 11V7zm1.6-3.7l-4 3a.984.984 0 0 1-1.047.09A.993.993 0 0 1 10 7V6a6 6 0 0 0-5.651 4A5.986 5.986 0 0 1 10 2V1a.993.993 0 0 1 .553-.89A.984.984 0 0 1 11.6.2l4 3a.994.994 0 0 1 .4.8 1.008 1.008 0 0 1-.4.8z"/></symbol><symbol id="hear-count" viewBox="0 0 13 16"><path class="cls-1" d="M3 12a3 3 0 0 1-3-3V7a3 3 0 0 1 3-3h1L9 .01V16l-5-4H3zm10-4a4 4 0 0 1-3 3.86V9.72a1.979 1.979 0 0 0 0-3.44V4.14A4 4 0 0 1 13 8z"/></symbol><symbol id="icon-fb" viewBox="0 0 96.124 96.123"><path d="M72.089.02L59.624 0C45.62 0 36.57 9.285 36.57 23.656v10.907H24.037a1.96 1.96 0 0 0-1.96 1.961v15.803a1.96 1.96 0 0 0 1.96 1.96H36.57v39.876a1.96 1.96 0 0 0 1.96 1.96h16.352a1.96 1.96 0 0 0 1.96-1.96V54.287h14.654a1.96 1.96 0 0 0 1.96-1.96l.006-15.803a1.963 1.963 0 0 0-1.961-1.961H56.842v-9.246c0-4.444 1.059-6.7 6.848-6.7l8.397-.003a1.96 1.96 0 0 0 1.959-1.96V1.98A1.96 1.96 0 0 0 72.089.02z"/></symbol><symbol id="icon-inst" viewBox="0 0 26 26"><path d="M20 7c-.551 0-1-.449-1-1V4c0-.551.449-1 1-1h2c.551 0 1 .449 1 1v2c0 .551-.449 1-1 1h-2zM13 9.188c-.726 0-1.396.213-1.973.563.18-.056.367-.093.564-.093a1.933 1.933 0 1 1-1.933 1.934c0-.199.039-.386.094-.565A3.77 3.77 0 0 0 9.188 13a3.81 3.81 0 0 0 3.813 3.813A3.812 3.812 0 1 0 13 9.188z" fill="#030104"/><path d="M13 7a6 6 0 1 1 0 12 6 6 0 0 1 0-12m0-2c-4.411 0-8 3.589-8 8s3.589 8 8 8 8-3.589 8-8-3.589-8-8-8z" fill="#030104"/><path d="M21.125 0H4.875A4.874 4.874 0 0 0 0 4.875v16.25A4.874 4.874 0 0 0 4.875 26h16.25A4.874 4.874 0 0 0 26 21.125V4.875A4.874 4.874 0 0 0 21.125 0zM24 9h-6.537A5.97 5.97 0 0 1 19 13a6 6 0 0 1-12 0c0-1.539.584-2.938 1.537-4H2V4.875A2.879 2.879 0 0 1 4.875 2h16.25A2.878 2.878 0 0 1 24 4.875V9z" fill="#030104"/></symbol><symbol id="icon-tw" viewBox="0 0 612 612"><path d="M612 116.258a250.714 250.714 0 0 1-72.088 19.772c25.929-15.527 45.777-40.155 55.184-69.411-24.322 14.379-51.169 24.82-79.775 30.48-22.907-24.437-55.49-39.658-91.63-39.658-69.334 0-125.551 56.217-125.551 125.513 0 9.828 1.109 19.427 3.251 28.606-104.326-5.24-196.835-55.223-258.75-131.174-10.823 18.51-16.98 40.078-16.98 63.101 0 43.559 22.181 81.993 55.835 104.479a125.556 125.556 0 0 1-56.867-15.756v1.568c0 60.806 43.291 111.554 100.693 123.104-10.517 2.83-21.607 4.398-33.08 4.398-8.107 0-15.947-.803-23.634-2.333 15.985 49.907 62.336 86.199 117.253 87.194-42.947 33.654-97.099 53.655-155.916 53.655-10.134 0-20.116-.612-29.944-1.721 55.567 35.681 121.536 56.485 192.438 56.485 230.948 0 357.188-191.291 357.188-357.188l-.421-16.253c24.666-17.593 46.005-39.697 62.794-64.861z" fill="#010002"/></symbol><symbol id="likes-count" viewBox="0 0 15.969 13.88"><path class="cls-1" d="M14.79 6.81l-6.821 7.07-6.821-7.07a4 4 0 0 1 5.657-5.65l1.164 1.41 1.164-1.41a4 4 0 1 1 5.657 5.65z"/></symbol><symbol id="quotes" viewBox="0 0 15 15"><path class="cls-1" d="M12.191 12.18H6.566l-1.875 2.81-1.875-2.81A2.815 2.815 0 0 1 .003 9.36V2.8A2.813 2.813 0 0 1 2.816-.01h9.375A2.812 2.812 0 0 1 15 2.8v6.56a2.814 2.814 0 0 1-2.809 2.82z"/></symbol></svg>