<svg id="svg" version="1.1" width="400" height="91.66666666666667" xmlns="http://www.w3.org/2000/svg" xmlns:xlink="http://www.w3.org/1999/xlink" style="display: block;">
  <g id="svgg">
<!--    <path id="path0" d="M224.167 0.583 L 224.167 1.167 220.525 1.167 C 215.969 1.167,215.833 1.203,215.833 2.433 L 215.833 3.333 211.242 3.333 C 205.885 3.333,205.758 3.361,205.576 4.571 L 205.465 5.312 201.491 5.364 C 197.035 5.423,197.161 5.387,197.039 6.650 L 196.959 7.486 192.176 7.535 C 186.796 7.589,186.882 7.569,186.712 8.838 L 186.623 9.500 184.561 9.500 C 183.298 9.500,182.500 9.565,182.500 9.667 C 182.500 9.758,182.293 9.833,182.040 9.833 C 181.400 9.833,180.667 10.549,180.667 11.173 C 180.667 11.445,180.592 11.667,180.500 11.667 C 180.389 11.667,180.333 23.222,180.333 46.000 L 180.333 80.333 179.333 80.333 L 178.333 80.333 178.333 81.417 L 178.333 82.500 174.083 82.500 L 169.833 82.500 169.833 81.589 C 169.833 80.521,169.623 80.333,168.428 80.333 L 167.667 80.333 167.667 76.091 L 167.667 71.849 168.708 71.800 L 169.750 71.750 169.800 70.792 L 169.850 69.833 172.717 69.831 C 178.070 69.827,178.156 69.735,178.160 64.000 C 178.163 59.019,178.831 59.500,171.917 59.500 C 165.746 59.500,165.833 59.482,165.833 60.777 L 165.833 61.667 164.758 61.667 L 163.683 61.667 163.633 62.625 L 163.583 63.583 162.625 63.633 C 162.098 63.661,161.667 63.755,161.667 63.842 C 161.667 63.929,161.519 64.000,161.339 64.000 C 160.914 64.000,159.833 65.081,159.833 65.506 C 159.833 65.686,159.758 65.833,159.667 65.833 C 159.574 65.833,159.500 66.278,159.500 66.833 L 159.500 67.833 158.764 67.833 C 157.384 67.833,157.500 67.064,157.500 76.184 C 157.500 80.845,157.564 84.333,157.649 84.333 C 157.730 84.333,157.848 84.540,157.911 84.792 C 158.067 85.419,158.644 86.000,159.112 86.000 C 159.475 86.000,159.500 86.065,159.500 86.988 C 159.500 88.238,159.734 88.500,160.845 88.500 L 161.667 88.500 161.667 89.411 C 161.667 90.493,161.873 90.667,163.156 90.667 C 163.983 90.667,164.000 90.677,164.000 91.167 L 164.000 91.667 173.167 91.667 L 182.333 91.667 182.333 91.175 C 182.333 90.693,182.353 90.682,183.292 90.633 L 184.250 90.583 184.299 89.549 L 184.349 88.516 185.383 88.466 L 186.417 88.417 186.466 87.466 L 186.516 86.516 187.466 86.466 L 188.417 86.417 188.466 85.292 L 188.515 84.167 189.162 84.167 C 190.766 84.167,190.667 86.371,190.667 50.852 L 190.667 19.719 191.327 19.521 C 192.079 19.296,192.500 18.800,192.500 18.140 L 192.500 17.688 196.570 17.636 C 201.147 17.577,200.810 17.661,200.943 16.536 L 201.043 15.694 205.480 15.626 C 210.846 15.543,211.333 15.390,211.333 13.791 C 211.333 13.552,211.785 13.516,215.325 13.469 C 219.760 13.411,219.658 13.438,219.791 12.264 L 219.877 11.500 223.730 11.498 C 225.849 11.496,227.752 11.450,227.958 11.395 L 228.333 11.294 228.333 39.564 L 228.333 67.833 227.450 67.833 C 226.345 67.833,226.167 68.012,226.167 69.120 L 226.167 70.007 222.958 69.962 L 219.750 69.917 219.702 69.417 C 219.621 68.564,219.330 68.180,218.682 68.071 C 217.553 67.882,217.500 67.845,217.500 67.245 C 217.500 66.562,217.012 66.049,216.221 65.900 L 215.667 65.796 215.667 63.565 L 215.667 61.333 216.092 61.333 C 216.999 61.333,217.500 60.894,217.500 60.100 C 217.500 59.340,217.755 59.167,218.877 59.167 C 219.282 59.167,219.654 58.718,219.661 58.222 C 219.674 57.367,219.750 57.333,221.676 57.333 C 224.743 57.333,225.833 56.924,225.833 55.773 C 225.833 55.223,225.848 55.211,226.698 55.111 C 228.037 54.952,228.075 54.871,228.140 52.002 C 228.187 49.935,228.152 49.452,227.932 49.138 C 227.786 48.929,227.667 48.609,227.667 48.427 C 227.667 48.000,226.895 47.333,226.401 47.333 C 226.191 47.333,225.973 47.258,225.917 47.167 C 225.851 47.061,223.720 47.000,220.073 47.000 C 213.487 47.000,213.667 46.960,213.667 48.417 L 213.667 49.167 212.667 49.167 L 211.667 49.167 211.667 50.159 L 211.667 51.151 210.625 51.200 L 209.583 51.250 209.534 52.292 L 209.484 53.333 208.492 53.333 L 207.500 53.333 207.500 54.500 C 207.500 55.549,207.467 55.667,207.172 55.667 C 206.752 55.667,205.667 56.745,205.667 57.162 C 205.667 57.337,205.592 57.527,205.500 57.583 C 205.394 57.649,205.334 59.791,205.336 63.468 C 205.339 70.438,205.453 71.017,206.929 71.504 C 207.478 71.685,207.486 71.702,207.534 72.802 L 207.583 73.917 208.534 73.966 L 209.484 74.016 209.534 74.966 L 209.583 75.917 210.625 75.966 L 211.667 76.016 211.667 77.091 L 211.667 78.167 212.645 78.167 L 213.624 78.167 213.705 79.004 C 213.749 79.464,213.840 79.895,213.906 79.962 C 213.973 80.029,217.640 80.083,222.055 80.083 L 230.083 80.083 230.133 79.140 L 230.182 78.196 232.000 78.140 C 234.065 78.076,234.139 78.035,234.275 76.882 L 234.375 76.040 235.229 75.895 C 236.280 75.717,236.476 75.298,236.491 73.208 L 236.500 71.833 237.300 71.833 C 237.740 71.833,238.190 71.743,238.300 71.633 C 238.454 71.479,238.500 63.274,238.500 35.717 L 238.500 0.000 231.333 0.000 L 224.167 0.000 224.167 0.583 M46.715 47.234 C 45.676 47.382,45.236 47.527,44.886 47.839 C 44.211 48.439,43.833 48.865,43.833 49.026 C 43.833 49.103,43.683 49.167,43.500 49.167 C 43.317 49.167,43.167 49.233,43.167 49.314 C 43.167 49.396,42.810 49.836,42.375 50.293 L 41.583 51.123 39.667 51.229 C 35.993 51.432,34.833 51.858,34.833 53.006 C 34.833 53.291,34.717 53.333,33.942 53.333 C 32.843 53.333,32.500 53.643,32.500 54.638 L 32.500 55.333 28.958 55.343 C 24.486 55.355,24.269 55.413,24.200 56.625 L 24.149 57.500 19.664 57.500 C 14.388 57.500,14.086 57.565,13.909 58.744 L 13.806 59.433 11.122 59.644 C 9.521 59.771,8.253 59.953,7.978 60.095 C 7.718 60.229,7.049 60.333,6.445 60.333 C 5.358 60.333,3.781 60.877,3.346 61.402 C 3.227 61.545,2.577 61.671,1.579 61.746 L -0.000 61.864 -0.000 66.766 L 0.000 71.667 4.061 71.667 C 6.294 71.667,8.525 71.588,9.019 71.491 C 9.513 71.394,11.204 71.258,12.776 71.189 L 15.636 71.064 16.240 70.460 C 16.748 69.952,16.996 69.839,17.797 69.750 C 19.398 69.571,20.920 68.793,21.104 68.059 L 21.203 67.667 24.643 67.665 C 26.535 67.665,28.590 67.616,29.208 67.558 C 30.004 67.483,30.333 67.508,30.333 67.643 C 30.333 67.749,30.080 67.833,29.761 67.833 C 29.031 67.833,28.333 68.097,28.333 68.372 C 28.333 68.490,28.071 68.827,27.750 69.121 C 27.025 69.786,27.025 69.909,27.750 70.573 C 28.071 70.867,28.333 71.224,28.333 71.366 C 28.333 71.797,29.041 71.834,37.396 71.828 C 48.671 71.821,50.451 71.646,51.714 70.418 C 52.132 70.013,52.471 69.833,52.817 69.833 C 53.546 69.833,55.000 69.496,55.000 69.327 C 55.000 69.247,55.335 68.852,55.744 68.449 L 56.488 67.715 59.786 67.624 C 63.664 67.517,65.167 67.021,65.167 65.849 C 65.167 65.749,65.185 65.664,65.208 65.661 C 65.231 65.657,66.787 65.515,68.667 65.346 C 72.315 65.016,73.075 64.814,73.786 63.980 C 74.058 63.662,74.372 63.520,74.944 63.456 C 75.376 63.407,75.809 63.265,75.907 63.140 C 76.004 63.015,76.286 62.823,76.534 62.714 C 76.781 62.604,77.098 62.293,77.238 62.023 C 77.525 61.469,77.495 61.475,81.333 61.152 C 82.989 61.012,83.721 60.879,84.103 60.648 C 84.389 60.475,84.744 60.333,84.892 60.333 C 85.040 60.333,85.527 60.109,85.973 59.834 C 86.419 59.559,87.021 59.288,87.309 59.230 C 87.597 59.172,87.833 59.028,87.833 58.910 C 87.833 58.791,87.918 58.666,88.022 58.632 C 88.395 58.507,88.609 54.251,88.394 51.221 L 88.287 49.723 87.435 48.812 C 85.168 46.385,80.034 47.449,79.009 50.557 C 78.769 51.285,78.757 51.287,75.000 51.416 C 71.321 51.543,70.864 51.706,70.437 53.042 C 70.369 53.255,70.166 53.333,69.680 53.333 C 68.654 53.333,68.189 53.618,68.073 54.317 C 68.019 54.647,67.946 55.007,67.912 55.117 C 67.867 55.263,66.732 55.337,63.717 55.392 C 61.443 55.433,59.171 55.530,58.667 55.608 L 57.750 55.750 57.667 56.583 L 57.583 57.417 56.167 57.446 C 55.234 57.465,54.892 57.427,55.167 57.337 C 55.396 57.262,55.781 57.192,56.023 57.183 C 56.681 57.158,57.194 56.653,57.315 55.911 C 57.415 55.293,57.459 55.252,58.157 55.133 C 59.068 54.977,59.144 54.902,59.298 54.001 C 59.402 53.390,59.500 53.251,59.919 53.116 C 60.985 52.774,61.333 51.915,61.333 49.629 C 61.333 47.716,61.146 47.393,59.916 47.179 C 58.536 46.938,48.491 46.980,46.715 47.234 M342.225 47.209 C 340.415 47.558,340.441 51.027,342.264 52.222 C 342.733 52.529,342.839 52.730,343.008 53.628 C 343.227 54.787,343.444 55.000,344.406 55.000 C 344.999 55.000,345.000 55.001,345.000 55.752 C 345.000 56.660,345.326 56.999,346.463 57.272 L 347.250 57.460 345.958 57.480 C 344.764 57.499,344.667 57.474,344.667 57.161 C 344.667 55.556,343.880 55.333,338.213 55.333 C 334.014 55.333,334.167 55.371,334.167 54.346 C 334.167 53.681,333.695 53.333,332.796 53.333 C 332.026 53.333,331.833 53.174,331.833 52.533 C 331.833 51.715,331.224 51.560,327.547 51.444 C 323.419 51.314,323.406 51.311,323.149 50.524 C 322.355 48.088,319.838 47.159,315.416 47.670 L 313.583 47.882 312.865 48.638 C 311.879 49.676,311.665 50.580,311.674 53.660 C 311.686 57.546,312.233 58.571,314.403 58.771 C 315.517 58.874,316.793 59.369,316.941 59.754 C 317.316 60.732,318.397 61.013,323.373 61.432 C 324.442 61.522,324.509 61.553,324.755 62.071 C 325.092 62.781,326.229 63.295,327.643 63.378 C 328.477 63.427,328.742 63.509,328.882 63.762 C 329.212 64.358,330.020 64.989,330.554 65.067 C 330.845 65.110,331.983 65.232,333.083 65.338 C 337.027 65.717,336.863 65.676,337.080 66.323 C 337.430 67.363,337.947 67.496,342.104 67.615 L 345.750 67.720 346.674 68.677 C 347.546 69.580,347.655 69.640,348.591 69.743 C 350.028 69.899,350.333 69.982,350.334 70.212 C 350.336 70.550,351.347 71.113,352.500 71.418 C 353.441 71.667,354.789 71.716,362.788 71.789 C 372.681 71.879,373.758 71.835,373.918 71.330 C 373.973 71.157,374.275 70.758,374.590 70.443 L 375.163 69.871 374.581 69.236 C 374.262 68.887,374.000 68.537,374.000 68.459 C 374.000 68.243,372.911 67.833,372.339 67.833 C 372.061 67.833,371.833 67.747,371.833 67.642 C 371.833 67.506,372.198 67.482,373.108 67.559 C 373.810 67.618,375.789 67.667,377.507 67.667 C 380.605 67.667,380.631 67.670,380.733 68.042 C 381.011 69.057,381.636 69.371,384.083 69.724 C 385.213 69.887,385.499 69.996,385.952 70.436 C 386.596 71.061,387.052 71.166,389.146 71.170 C 390.028 71.172,391.575 71.284,392.583 71.419 C 393.592 71.553,395.673 71.665,397.208 71.665 L 400.000 71.667 400.000 66.583 L 400.000 61.500 399.427 61.500 C 399.111 61.500,398.807 61.425,398.750 61.334 C 398.575 61.050,396.849 60.333,396.339 60.333 C 396.073 60.333,395.344 60.228,394.719 60.100 C 394.094 59.972,392.533 59.777,391.250 59.666 C 388.357 59.416,388.568 59.490,388.439 58.685 C 388.256 57.540,388.065 57.500,382.780 57.500 L 378.210 57.500 378.101 56.684 C 377.933 55.416,377.960 55.424,373.642 55.364 L 369.834 55.311 369.731 54.666 C 369.575 53.694,369.150 53.333,368.160 53.333 C 367.593 53.333,367.333 53.265,367.333 53.117 C 367.333 52.140,366.435 51.570,364.667 51.426 C 360.749 51.106,361.041 51.165,360.942 50.667 C 360.837 50.144,360.069 49.167,359.763 49.167 C 359.649 49.167,359.315 48.867,359.020 48.500 C 358.717 48.123,358.340 47.833,358.151 47.833 C 357.967 47.833,357.614 47.729,357.367 47.601 C 356.322 47.063,344.565 46.758,342.225 47.209 " stroke="none" fill="#ffffff" fill-rule="evenodd"></path>-->
<path id="path1" d="M224.167 0.583 L 224.167 1.167 220.525 1.167 C 215.969 1.167,215.833 1.203,215.833 2.433 L 215.833 3.333 211.242 3.333 C 205.885 3.333,205.758 3.361,205.576 4.571 L 205.465 5.312 201.491 5.364 C 197.035 5.423,197.161 5.387,197.039 6.650 L 196.959 7.486 192.176 7.535 C 186.796 7.589,186.882 7.569,186.712 8.838 L 186.623 9.500 184.561 9.500 C 183.298 9.500,182.500 9.565,182.500 9.667 C 182.500 9.758,182.293 9.833,182.040 9.833 C 181.400 9.833,180.667 10.549,180.667 11.173 C 180.667 11.445,180.592 11.667,180.500 11.667 C 180.389 11.667,180.333 23.222,180.333 46.000 L 180.333 80.333 179.333 80.333 L 178.333 80.333 178.333 81.417 L 178.333 82.500 174.083 82.500 L 169.833 82.500 169.833 81.589 C 169.833 80.521,169.623 80.333,168.428 80.333 L 167.667 80.333 167.667 76.091 L 167.667 71.849 168.708 71.800 L 169.750 71.750 169.800 70.792 L 169.850 69.833 172.717 69.831 C 178.070 69.827,178.156 69.735,178.160 64.000 C 178.163 59.019,178.831 59.500,171.917 59.500 C 165.746 59.500,165.833 59.482,165.833 60.777 L 165.833 61.667 164.758 61.667 L 163.683 61.667 163.633 62.625 L 163.583 63.583 162.625 63.633 C 162.098 63.661,161.667 63.755,161.667 63.842 C 161.667 63.929,161.519 64.000,161.339 64.000 C 160.914 64.000,159.833 65.081,159.833 65.506 C 159.833 65.686,159.758 65.833,159.667 65.833 C 159.574 65.833,159.500 66.278,159.500 66.833 L 159.500 67.833 158.764 67.833 C 157.384 67.833,157.500 67.064,157.500 76.184 C 157.500 80.845,157.564 84.333,157.649 84.333 C 157.730 84.333,157.848 84.540,157.911 84.792 C 158.067 85.419,158.644 86.000,159.112 86.000 C 159.475 86.000,159.500 86.065,159.500 86.988 C 159.500 88.238,159.734 88.500,160.845 88.500 L 161.667 88.500 161.667 89.411 C 161.667 90.493,161.873 90.667,163.156 90.667 C 163.983 90.667,164.000 90.677,164.000 91.167 L 164.000 91.667 173.167 91.667 L 182.333 91.667 182.333 91.175 C 182.333 90.693,182.353 90.682,183.292 90.633 L 184.250 90.583 184.299 89.549 L 184.349 88.516 185.383 88.466 L 186.417 88.417 186.466 87.466 L 186.516 86.516 187.466 86.466 L 188.417 86.417 188.466 85.292 L 188.515 84.167 189.162 84.167 C 190.766 84.167,190.667 86.371,190.667 50.852 L 190.667 19.719 191.327 19.521 C 192.079 19.296,192.500 18.800,192.500 18.140 L 192.500 17.688 196.570 17.636 C 201.147 17.577,200.810 17.661,200.943 16.536 L 201.043 15.694 205.480 15.626 C 210.846 15.543,211.333 15.390,211.333 13.791 C 211.333 13.552,211.785 13.516,215.325 13.469 C 219.760 13.411,219.658 13.438,219.791 12.264 L 219.877 11.500 223.730 11.498 C 225.849 11.496,227.752 11.450,227.958 11.395 L 228.333 11.294 228.333 39.564 L 228.333 67.833 227.450 67.833 C 226.345 67.833,226.167 68.012,226.167 69.120 L 226.167 70.007 222.958 69.962 L 219.750 69.917 219.702 69.417 C 219.621 68.564,219.330 68.180,218.682 68.071 C 217.553 67.882,217.500 67.845,217.500 67.245 C 217.500 66.562,217.012 66.049,216.221 65.900 L 215.667 65.796 215.667 63.565 L 215.667 61.333 216.092 61.333 C 216.999 61.333,217.500 60.894,217.500 60.100 C 217.500 59.340,217.755 59.167,218.877 59.167 C 219.282 59.167,219.654 58.718,219.661 58.222 C 219.674 57.367,219.750 57.333,221.676 57.333 C 224.743 57.333,225.833 56.924,225.833 55.773 C 225.833 55.223,225.848 55.211,226.698 55.111 C 228.037 54.952,228.075 54.871,228.140 52.002 C 228.187 49.935,228.152 49.452,227.932 49.138 C 227.786 48.929,227.667 48.609,227.667 48.427 C 227.667 48.000,226.895 47.333,226.401 47.333 C 226.191 47.333,225.973 47.258,225.917 47.167 C 225.851 47.061,223.720 47.000,220.073 47.000 C 213.487 47.000,213.667 46.960,213.667 48.417 L 213.667 49.167 212.667 49.167 L 211.667 49.167 211.667 50.159 L 211.667 51.151 210.625 51.200 L 209.583 51.250 209.534 52.292 L 209.484 53.333 208.492 53.333 L 207.500 53.333 207.500 54.500 C 207.500 55.549,207.467 55.667,207.172 55.667 C 206.752 55.667,205.667 56.745,205.667 57.162 C 205.667 57.337,205.592 57.527,205.500 57.583 C 205.394 57.649,205.334 59.791,205.336 63.468 C 205.339 70.438,205.453 71.017,206.929 71.504 C 207.478 71.685,207.486 71.702,207.534 72.802 L 207.583 73.917 208.534 73.966 L 209.484 74.016 209.534 74.966 L 209.583 75.917 210.625 75.966 L 211.667 76.016 211.667 77.091 L 211.667 78.167 212.645 78.167 L 213.624 78.167 213.705 79.004 C 213.749 79.464,213.840 79.895,213.906 79.962 C 213.973 80.029,217.640 80.083,222.055 80.083 L 230.083 80.083 230.133 79.140 L 230.182 78.196 232.000 78.140 C 234.065 78.076,234.139 78.035,234.275 76.882 L 234.375 76.040 235.229 75.895 C 236.280 75.717,236.476 75.298,236.491 73.208 L 236.500 71.833 237.300 71.833 C 237.740 71.833,238.190 71.743,238.300 71.633 C 238.454 71.479,238.500 63.274,238.500 35.717 L 238.500 0.000 231.333 0.000 L 224.167 0.000 224.167 0.583 M46.715 47.234 C 45.676 47.382,45.236 47.527,44.886 47.839 C 44.211 48.439,43.833 48.865,43.833 49.026 C 43.833 49.103,43.683 49.167,43.500 49.167 C 43.317 49.167,43.167 49.233,43.167 49.314 C 43.167 49.396,42.810 49.836,42.375 50.293 L 41.583 51.123 39.667 51.229 C 35.993 51.432,34.833 51.858,34.833 53.006 C 34.833 53.291,34.717 53.333,33.942 53.333 C 32.843 53.333,32.500 53.643,32.500 54.638 L 32.500 55.333 28.958 55.343 C 24.486 55.355,24.269 55.413,24.200 56.625 L 24.149 57.500 19.664 57.500 C 14.388 57.500,14.086 57.565,13.909 58.744 L 13.806 59.433 11.122 59.644 C 9.521 59.771,8.253 59.953,7.978 60.095 C 7.718 60.229,7.049 60.333,6.445 60.333 C 5.358 60.333,3.781 60.877,3.346 61.402 C 3.227 61.545,2.577 61.671,1.579 61.746 L -0.000 61.864 -0.000 66.766 L 0.000 71.667 4.061 71.667 C 6.294 71.667,8.525 71.588,9.019 71.491 C 9.513 71.394,11.204 71.258,12.776 71.189 L 15.636 71.064 16.240 70.460 C 16.748 69.952,16.996 69.839,17.797 69.750 C 19.398 69.571,20.920 68.793,21.104 68.059 L 21.203 67.667 24.643 67.665 C 26.535 67.665,28.590 67.616,29.208 67.558 C 30.004 67.483,30.333 67.508,30.333 67.643 C 30.333 67.749,30.080 67.833,29.761 67.833 C 29.031 67.833,28.333 68.097,28.333 68.372 C 28.333 68.490,28.071 68.827,27.750 69.121 C 27.025 69.786,27.025 69.909,27.750 70.573 C 28.071 70.867,28.333 71.224,28.333 71.366 C 28.333 71.797,29.041 71.834,37.396 71.828 C 48.671 71.821,50.451 71.646,51.714 70.418 C 52.132 70.013,52.471 69.833,52.817 69.833 C 53.546 69.833,55.000 69.496,55.000 69.327 C 55.000 69.247,55.335 68.852,55.744 68.449 L 56.488 67.715 59.786 67.624 C 63.664 67.517,65.167 67.021,65.167 65.849 C 65.167 65.749,65.185 65.664,65.208 65.661 C 65.231 65.657,66.787 65.515,68.667 65.346 C 72.315 65.016,73.075 64.814,73.786 63.980 C 74.058 63.662,74.372 63.520,74.944 63.456 C 75.376 63.407,75.809 63.265,75.907 63.140 C 76.004 63.015,76.286 62.823,76.534 62.714 C 76.781 62.604,77.098 62.293,77.238 62.023 C 77.525 61.469,77.495 61.475,81.333 61.152 C 82.989 61.012,83.721 60.879,84.103 60.648 C 84.389 60.475,84.744 60.333,84.892 60.333 C 85.040 60.333,85.527 60.109,85.973 59.834 C 86.419 59.559,87.021 59.288,87.309 59.230 C 87.597 59.172,87.833 59.028,87.833 58.910 C 87.833 58.791,87.918 58.666,88.022 58.632 C 88.395 58.507,88.609 54.251,88.394 51.221 L 88.287 49.723 87.435 48.812 C 85.168 46.385,80.034 47.449,79.009 50.557 C 78.769 51.285,78.757 51.287,75.000 51.416 C 71.321 51.543,70.864 51.706,70.437 53.042 C 70.369 53.255,70.166 53.333,69.680 53.333 C 68.654 53.333,68.189 53.618,68.073 54.317 C 68.019 54.647,67.946 55.007,67.912 55.117 C 67.867 55.263,66.732 55.337,63.717 55.392 C 61.443 55.433,59.171 55.530,58.667 55.608 L 57.750 55.750 57.667 56.583 L 57.583 57.417 56.167 57.446 C 55.234 57.465,54.892 57.427,55.167 57.337 C 55.396 57.262,55.781 57.192,56.023 57.183 C 56.681 57.158,57.194 56.653,57.315 55.911 C 57.415 55.293,57.459 55.252,58.157 55.133 C 59.068 54.977,59.144 54.902,59.298 54.001 C 59.402 53.390,59.500 53.251,59.919 53.116 C 60.985 52.774,61.333 51.915,61.333 49.629 C 61.333 47.716,61.146 47.393,59.916 47.179 C 58.536 46.938,48.491 46.980,46.715 47.234 M342.225 47.209 C 340.415 47.558,340.441 51.027,342.264 52.222 C 342.733 52.529,342.839 52.730,343.008 53.628 C 343.227 54.787,343.444 55.000,344.406 55.000 C 344.999 55.000,345.000 55.001,345.000 55.752 C 345.000 56.660,345.326 56.999,346.463 57.272 L 347.250 57.460 345.958 57.480 C 344.764 57.499,344.667 57.474,344.667 57.161 C 344.667 55.556,343.880 55.333,338.213 55.333 C 334.014 55.333,334.167 55.371,334.167 54.346 C 334.167 53.681,333.695 53.333,332.796 53.333 C 332.026 53.333,331.833 53.174,331.833 52.533 C 331.833 51.715,331.224 51.560,327.547 51.444 C 323.419 51.314,323.406 51.311,323.149 50.524 C 322.355 48.088,319.838 47.159,315.416 47.670 L 313.583 47.882 312.865 48.638 C 311.879 49.676,311.665 50.580,311.674 53.660 C 311.686 57.546,312.233 58.571,314.403 58.771 C 315.517 58.874,316.793 59.369,316.941 59.754 C 317.316 60.732,318.397 61.013,323.373 61.432 C 324.442 61.522,324.509 61.553,324.755 62.071 C 325.092 62.781,326.229 63.295,327.643 63.378 C 328.477 63.427,328.742 63.509,328.882 63.762 C 329.212 64.358,330.020 64.989,330.554 65.067 C 330.845 65.110,331.983 65.232,333.083 65.338 C 337.027 65.717,336.863 65.676,337.080 66.323 C 337.430 67.363,337.947 67.496,342.104 67.615 L 345.750 67.720 346.674 68.677 C 347.546 69.580,347.655 69.640,348.591 69.743 C 350.028 69.899,350.333 69.982,350.334 70.212 C 350.336 70.550,351.347 71.113,352.500 71.418 C 353.441 71.667,354.789 71.716,362.788 71.789 C 372.681 71.879,373.758 71.835,373.918 71.330 C 373.973 71.157,374.275 70.758,374.590 70.443 L 375.163 69.871 374.581 69.236 C 374.262 68.887,374.000 68.537,374.000 68.459 C 374.000 68.243,372.911 67.833,372.339 67.833 C 372.061 67.833,371.833 67.747,371.833 67.642 C 371.833 67.506,372.198 67.482,373.108 67.559 C 373.810 67.618,375.789 67.667,377.507 67.667 C 380.605 67.667,380.631 67.670,380.733 68.042 C 381.011 69.057,381.636 69.371,384.083 69.724 C 385.213 69.887,385.499 69.996,385.952 70.436 C 386.596 71.061,387.052 71.166,389.146 71.170 C 390.028 71.172,391.575 71.284,392.583 71.419 C 393.592 71.553,395.673 71.665,397.208 71.665 L 400.000 71.667 400.000 66.583 L 400.000 61.500 399.427 61.500 C 399.111 61.500,398.807 61.425,398.750 61.334 C 398.575 61.050,396.849 60.333,396.339 60.333 C 396.073 60.333,395.344 60.228,394.719 60.100 C 394.094 59.972,392.533 59.777,391.250 59.666 C 388.357 59.416,388.568 59.490,388.439 58.685 C 388.256 57.540,388.065 57.500,382.780 57.500 L 378.210 57.500 378.101 56.684 C 377.933 55.416,377.960 55.424,373.642 55.364 L 369.834 55.311 369.731 54.666 C 369.575 53.694,369.150 53.333,368.160 53.333 C 367.593 53.333,367.333 53.265,367.333 53.117 C 367.333 52.140,366.435 51.570,364.667 51.426 C 360.749 51.106,361.041 51.165,360.942 50.667 C 360.837 50.144,360.069 49.167,359.763 49.167 C 359.649 49.167,359.315 48.867,359.020 48.500 C 358.717 48.123,358.340 47.833,358.151 47.833 C 357.967 47.833,357.614 47.729,357.367 47.601 C 356.322 47.063,344.565 46.758,342.225 47.209 " stroke="none" fill="#000000" fill-rule="evenodd"></path>
  </g></svg>